<?xml version="1.0" encoding="utf-8" standalone="no"?>
<svg width="100%" height="100%" viewBox="0 0 4500 4500" version="1.2" xmlns:xlink="http://www.w3.org/1999/xlink" xmlns:serif="http://www.serif.com/" baseProfile="tiny-ps" stroke-miterlimit="2" stroke-linejoin="round" fill-rule="evenodd" xmlns="http://www.w3.org/2000/svg">
  <title>offsweet-icon</title>
    <g transform="matrix(1,0,0,1,-10125,-6.82121e-13)">
        <rect x="10125" y="0" width="4500" height="4500" fill="white" />
        <g id="Page-3" transform="matrix(4.16667,0,0,4.16667,10125,0)">
            <rect x="0" y="0" width="1080" height="1080" fill="none" />
            <g transform="matrix(1,0,0,1,394.734,465.819)">
                <g id="Layer-1">
                    <path d="M0,174.753C0,174.753 0.054,174.869 0.135,175.039C-13.772,147.503 -22.544,117.179 -25.704,86.964C-33.384,13.551 -1.067,-57.769 54.852,-90.591C77.06,-103.736 104.42,-105.183 118.498,-93.956C133.665,-81.858 135.115,-50.909 122.376,-11.165C114.595,13.11 85.947,74.006 47.661,121.588C31.688,144.474 0,174.753 0,174.753M267.636,-163.251L237.808,-79.844C284.287,-63.223 318.27,-36.689 338.811,-0.98C358.134,32.609 362.19,67.89 362.19,91.572C362.19,198.449 275.24,285.399 168.364,285.399C123.247,285.399 85.043,269.672 54.691,244.58C75.841,226.379 96.39,202.576 118.407,174.894C159.401,123.351 195.141,52.024 206.729,15.872C240.657,-89.98 200.618,-141.761 173.731,-163.206C130.389,-197.776 64.484,-199.226 9.873,-166.902C-31.935,-142.363 -65.788,-104.701 -88.026,-57.988C-110.502,-10.777 -119.415,42.533 -113.804,96.18C-110.809,124.804 -104.321,152.634 -94.7,178.948C-107.56,161.267 -119.899,134.986 -130.796,101.35L-215.064,128.651C-197.698,182.253 -176.938,221.642 -151.599,249.069C-117.7,285.763 -81.568,293.49 -57.162,293.49L-56.981,293.49C-46.886,293.474 -36.732,292.176 -26.53,289.679C25.465,344.043 94.643,373.979 168.364,373.979C324.083,373.979 450.77,247.292 450.77,91.572C450.77,34.645 432.926,-104.143 267.636,-163.251" fill-rule="nonzero" fill="rgb(20,20,20)" />
                </g>
            </g>
        </g>
    </g>
</svg>