<?xml version="1.0" encoding="UTF-8"?>
<svg id="Layer_1" data-name="Layer 1" xmlns="http://www.w3.org/2000/svg" viewBox="0 0 1135 245">
  <defs>
    <style>
      .cls-1 {
        fill: #999;
      }
    </style>
  </defs>
  <g>
    <path class="cls-1" d="M465.63,77.16h-15.82v24.91h15.82v79.28h29.26v-79.28h22.54v-24.91h-22.54v-2.97c0-10.68,5.93-16.8,16.41-16.8h6.33v-22.93h-7.31c-29.26,0-44.68,16.41-44.68,42.7Z"/>
    <path class="cls-1" d="M541.6,77.16h-15.82v24.91h15.82v79.28h29.26v-79.28h22.54v-24.91h-22.54v-2.97c0-10.68,5.93-16.8,16.41-16.8h6.33v-22.93h-7.31c-29.26,0-44.68,16.41-44.68,42.7Z"/>
    <path class="cls-1" d="M630.78,105.04c0-5.34,4.35-8.5,12.26-8.5s13.25,3.56,15.82,10.68l24.71-9.49c-4.35-14.43-19.38-22.93-40.13-22.93-25.3,0-41.52,12.06-41.52,31.83,0,35.78,55.55,27.08,55.55,45.27,0,5.93-5.14,9.49-13.84,9.49-11.66,0-19.18-5.34-21.94-14.43l-24.71,9.49c5.93,17.99,22.54,27.48,45.67,27.48,26.69,0,43.89-12.85,43.89-33.81,0-38.35-55.75-28.27-55.75-45.07Z"/>
    <polygon class="cls-1" points="816.08 77.16 800.27 152.29 783.07 77.16 750.45 77.16 733.44 152.29 717.43 77.16 687.58 77.16 714.86 181.35 749.46 181.35 766.66 110.37 784.45 181.35 819.05 181.35 845.93 77.16 816.08 77.16"/>
    <path class="cls-1" d="M898.4,74.79c-29.85,0-53.77,24.32-53.77,54.56s21.94,54.56,55.75,54.56c25.5,0,38.95-10.48,47.05-22.34l-22.34-14.83c-4.55,8.3-11.07,12.85-23.92,12.85-13.84,0-24.51-7.71-27.88-21.35h78.09c.4-2.57.59-6.52.59-11.07,0-26.1-19.97-52.39-53.58-52.39ZM872.9,119.07c2.97-14.23,12.85-22.14,26.29-22.14s22.54,8.5,25.3,22.14h-51.6Z"/>
    <path class="cls-1" d="M1014.65,74.79c-29.85,0-53.77,24.32-53.77,54.56s21.94,54.56,55.75,54.56c25.5,0,38.94-10.48,47.05-22.34l-22.34-14.83c-4.55,8.3-11.07,12.85-23.92,12.85-13.84,0-24.51-7.71-27.87-21.35h78.09c.39-2.57.59-6.52.59-11.07,0-26.1-19.97-52.39-53.57-52.39ZM989.14,119.07c2.96-14.23,12.85-22.14,26.29-22.14s22.54,8.5,25.3,22.14h-51.6Z"/>
    <path class="cls-1" d="M1077.32,142.4c0,23.53,13.25,38.95,39.14,38.95h17.2v-25.5h-11.07c-10.28,0-16.01-5.93-16.01-17v-36.77h26.29v-24.91h-25.3v-27.48h-30.25v92.72Z"/>
    <path class="cls-1" d="M332.95,129.3c0-31.21,23.31-54.52,56.3-54.52s56.3,23.31,56.3,54.52-23.51,54.52-56.3,54.52-56.3-23.51-56.3-54.52ZM416.31,129.1c0-16.59-10.67-28.25-26.87-28.25s-27.06,11.65-27.06,28.45,10.86,28.45,27.06,28.45,26.87-11.85,26.87-28.64Z"/>
  </g>
  <path class="cls-1" d="M208.68,12.9l-12.81,35.83c19.97,7.14,34.56,18.54,43.39,33.88,8.3,14.43,10.04,29.58,10.04,39.76,0,45.91-37.35,83.26-83.26,83.26-19.38,0-35.79-6.76-48.83-17.53,9.09-7.82,17.91-18.04,27.37-29.93,17.61-22.14,32.96-52.78,37.94-68.31,14.57-45.47-2.62-67.71-14.17-76.92-18.62-14.85-46.93-15.47-70.39-1.59-17.96,10.54-32.5,26.72-42.05,46.78-9.65,20.28-13.48,43.18-11.07,66.22,1.29,12.3,4.07,24.25,8.21,35.55-5.52-7.59-10.82-18.88-15.51-33.33L1.33,138.29c7.46,23.02,16.38,39.94,27.26,51.73,14.56,15.76,30.08,19.08,40.57,19.08h.08c4.34,0,8.7-.56,13.08-1.64,22.33,23.35,52.05,36.21,83.72,36.21,66.89,0,121.31-54.42,121.31-121.31,0-24.45-7.67-84.07-78.67-109.46ZM93.71,158.09s.02.05.06.12c-5.97-11.83-9.74-24.85-11.1-37.83-3.3-31.53,10.58-62.17,34.6-76.27,9.54-5.65,21.29-6.27,27.34-1.45,6.52,5.2,7.14,18.49,1.67,35.56-3.34,10.43-15.65,36.59-32.09,57.03-6.86,9.83-20.47,22.84-20.47,22.84Z"/>
</svg>