<?xml version="1.0" encoding="UTF-8"?>
<svg id="Layer_1" data-name="Layer 1" xmlns="http://www.w3.org/2000/svg" viewBox="0 0 665.83 564.16">
  <defs>
    <style>
      .cls-1 {
        fill: #999;
      }
    </style>
  </defs>
  <path class="cls-1" d="M482.7,26.92l-29.83,83.41c46.48,16.62,80.46,43.15,101,78.86,19.32,33.59,23.38,68.87,23.38,92.55,0,106.88-86.95,193.83-193.83,193.83-45.12,0-83.32-15.73-113.67-40.82,21.15-18.2,41.7-42,63.72-69.69,40.99-51.54,76.73-122.87,88.32-159.02,33.93-105.85-6.11-157.63-33-179.08-43.34-34.57-109.25-36.02-163.86-3.7-41.81,24.54-75.66,62.2-97.9,108.91-22.48,47.21-31.39,100.52-25.78,154.17,2.99,28.62,9.48,56.45,19.1,82.77-12.86-17.68-25.2-43.96-36.1-77.6L0,318.83c17.37,53.6,38.13,92.99,63.46,120.42,33.9,36.69,70.03,44.42,94.44,44.42h.18c10.09-.02,20.25-1.31,30.45-3.81,52,54.36,121.17,84.3,194.89,84.3,155.72,0,282.41-126.69,282.41-282.41,0-56.93-17.84-195.71-183.13-254.82ZM215.06,364.93s.05.12.13.29c-13.91-27.54-22.68-57.86-25.84-88.08-7.68-73.41,24.64-144.73,80.56-177.56,22.21-13.14,49.57-14.59,63.65-3.36,15.17,12.1,16.62,43.05,3.88,82.79-7.78,24.28-36.43,85.17-74.71,132.75-15.97,22.89-47.66,53.16-47.66,53.16Z"/>
</svg>